<?xml version="1.0" encoding="utf-8"?>
<!-- Generator: Adobe Illustrator 17.1.0, SVG Export Plug-In . SVG Version: 6.00 Build 0)  -->
<!DOCTYPE svg PUBLIC "-//W3C//DTD SVG 1.1//EN" "http://www.w3.org/Graphics/SVG/1.1/DTD/svg11.dtd">
<svg version="1.1" id="Layer_1" xmlns="http://www.w3.org/2000/svg" xmlns:xlink="http://www.w3.org/1999/xlink" x="0px" y="0px"
	 viewBox="933 102.3 692 376" enable-background="new 933 102.3 692 376" xml:space="preserve">
<g>
	
		<line fill="none" stroke="#FFFFFF" stroke-width="6" stroke-linecap="square" stroke-miterlimit="10" x1="1368.5" y1="290.3" x2="1368.5" y2="373.9"/>
	<polyline fill="none" stroke="#FFFFFF" stroke-width="6" stroke-miterlimit="10" points="1409.2,290.3 1492.8,290.3 1409.2,373.9 
		1492.8,373.9 	"/>
	<path fill="none" stroke="#FFFFFF" stroke-width="6" stroke-miterlimit="10" d="M1564.2,326l26.5-26.5l0,0
		c-7.3-6.1-16.6-9.4-26.5-9.4c-23.4,0-42.1,18.9-42.1,42.1c0,23.4,18.9,42.1,42.1,42.1c23.4,0,42.1-18.9,42.1-42.1
		c0-1.8-0.1-3.9-0.4-5.8"/>
	<line fill="none" stroke="#FFFFFF" stroke-width="6" stroke-miterlimit="10" x1="1544" y1="276.5" x2="1575.4" y2="245.5"/>
	<circle fill="none" stroke="#FFFFFF" stroke-width="6" stroke-miterlimit="10" cx="1244.4" cy="262.4" r="1.3"/>
	<circle fill="none" stroke="#FFFFFF" stroke-width="6" stroke-miterlimit="10" cx="1327.8" cy="262.4" r="1.3"/>
	<path fill="none" stroke="#FFFFFF" stroke-width="6" stroke-linecap="square" stroke-miterlimit="10" d="M1244.4,290.3v41.8
		c0,23.1,18.7,41.8,41.8,41.8s41.8-18.7,41.8-41.8v-41.8"/>
	<path fill="none" stroke="#FFFFFF" stroke-width="6" stroke-miterlimit="10" d="M988.6,243.2c-22.8,22.8-36.9,54.3-36.9,89.1
		c0,69.6,56.4,126,126,126s126-56.4,126-126s-56.4-126-126-126c23.2,0,42-18.8,42-42s-18.8-42-42-42v58.6"/>
</g>
</svg>
