<?xml version="1.0" encoding="utf-8"?>
<!-- Generator: Adobe Illustrator 17.1.0, SVG Export Plug-In . SVG Version: 6.00 Build 0)  -->
<!DOCTYPE svg PUBLIC "-//W3C//DTD SVG 1.1//EN" "http://www.w3.org/Graphics/SVG/1.1/DTD/svg11.dtd">
<svg version="1.1" id="Layer_1" xmlns="http://www.w3.org/2000/svg" xmlns:xlink="http://www.w3.org/1999/xlink" x="0px" y="0px"
	 viewBox="0 0 841.9 595.3" enable-background="new 0 0 841.9 595.3" xml:space="preserve">
<g>
	<path fill="none" stroke="#FFFFFF" stroke-width="5" stroke-miterlimit="10" d="M245,246c49.3,0,89.2,40,89.2,89.2
		s-40,89.2-89.2,89.2s-89.2-40-89.2-89.2c0-35.7,21-66.6,51.3-80.8"/>
	<path fill="none" stroke="#FFFFFF" stroke-width="5" stroke-miterlimit="10" d="M245,246c20.8,0,37.6-16.9,37.6-37.6
		s-16.9-37.6-37.6-37.6v58.1"/>
	<path fill="none" stroke="#FFFFFF" stroke-width="5" stroke-miterlimit="10" d="M430.2,284.7c0,21.3-17.3,38.6-38.6,38.6
		s-38.6-17.3-38.6-38.6"/>
	<line fill="none" stroke="#FFFFFF" stroke-width="5" stroke-miterlimit="10" x1="449" y1="284.7" x2="449" y2="323.3"/>
	<polyline fill="none" stroke="#FFFFFF" stroke-width="5" stroke-miterlimit="10" points="467.8,284.7 506.5,284.7 467.8,323.3 
		506.5,323.3 	"/>
	<line fill="none" stroke="#FFFFFF" stroke-width="5" stroke-miterlimit="10" x1="525.3" y1="304.1" x2="545.7" y2="304.1"/>
	<path fill="none" stroke="#FFFFFF" stroke-width="5" stroke-miterlimit="10" d="M584,301.2l12.3-12.3l0,0
		c-3.4-2.8-7.7-4.4-12.3-4.4c-10.8,0-19.5,8.7-19.5,19.5s8.7,19.5,19.5,19.5c10.8,0,19.5-8.7,19.5-19.5c0-0.9-0.1-1.8-0.2-2.7"/>
	<line fill="none" stroke="#FFFFFF" stroke-width="5" stroke-miterlimit="10" x1="574.6" y1="276.2" x2="589.1" y2="261.8"/>
	<circle fill="none" stroke="#FFFFFF" stroke-width="5" stroke-miterlimit="10" cx="353.7" cy="272.5" r="0.6"/>
	<circle fill="none" stroke="#FFFFFF" stroke-width="5" stroke-miterlimit="10" cx="430.2" cy="272.5" r="0.6"/>
	<path fill="none" stroke="#FFFFFF" stroke-width="5" stroke-miterlimit="10" d="M635.3,356.2v-26.7v-0.1
		c28.1,0,50.8-22.7,50.8-50.8c0-28.1-22.7-50.8-50.8-50.8"/>
	<circle fill="none" stroke="#FFFFFF" stroke-width="5" stroke-miterlimit="10" cx="635.3" cy="375.4" r="0.6"/>
</g>
</svg>
